<svg width="440" height="66" viewBox="0 0 440 66" fill="none" xmlns="http://www.w3.org/2000/svg">
<rect width="440" height="66" rx="33" fill="#9B9654"/>
<path d="M55.8946 14.72C54.5826 16.544 52.9186 18.432 50.9026 20.384C48.9186 22.336 46.7106 24.208 44.2786 26C41.8786 27.792 39.3666 29.392 36.7426 30.8C36.4866 30.32 36.1506 29.792 35.7346 29.216C35.3506 28.64 34.9186 28.08 34.4386 27.536C33.9906 26.992 33.5586 26.512 33.1426 26.096C35.8946 24.784 38.5346 23.168 41.0626 21.248C43.5906 19.296 45.8466 17.264 47.8306 15.152C49.8466 13.04 51.4466 11.008 52.6306 9.056H58.6306C59.9426 10.88 61.3826 12.624 62.9506 14.288C64.5186 15.952 66.1986 17.488 67.9906 18.896C69.7826 20.304 71.6226 21.568 73.5106 22.688C75.3986 23.808 77.3026 24.752 79.2226 25.52C78.4866 26.256 77.7986 27.088 77.1586 28.016C76.5186 28.944 75.9266 29.84 75.3826 30.704C73.5586 29.744 71.7026 28.64 69.8146 27.392C67.9586 26.144 66.1666 24.816 64.4386 23.408C62.7106 21.968 61.1106 20.512 59.6386 19.04C58.1666 17.568 56.9186 16.128 55.8946 14.72ZM43.8946 23.6H68.0386V28.64H43.8946V23.6ZM38.1346 33.392H73.7026V38.384H38.1346V33.392ZM35.7346 47.984H76.5346V52.928H35.7346V47.984ZM52.7746 25.616H58.8706V50.48H52.7746V25.616ZM41.1586 40.208L45.7666 38.288C46.3746 39.088 46.9666 39.968 47.5426 40.928C48.1506 41.888 48.6946 42.832 49.1746 43.76C49.6546 44.688 50.0066 45.52 50.2306 46.256L45.2866 48.464C45.0946 47.728 44.7746 46.88 44.3266 45.92C43.8786 44.928 43.3826 43.936 42.8386 42.944C42.2946 41.952 41.7346 41.04 41.1586 40.208ZM65.5426 38.336L71.0626 40.352C70.1026 41.824 69.1106 43.296 68.0866 44.768C67.0626 46.208 66.1186 47.44 65.2546 48.464L60.9346 46.64C61.4786 45.872 62.0386 45.024 62.6146 44.096C63.1906 43.136 63.7346 42.16 64.2466 41.168C64.7586 40.144 65.1906 39.2 65.5426 38.336ZM98.4706 11.264H104.327V24.752C104.327 26.928 104.231 29.328 104.039 31.952C103.847 34.544 103.479 37.184 102.935 39.872C102.423 42.56 101.655 45.168 100.631 47.696C99.6066 50.192 98.2626 52.448 96.5986 54.464C96.2786 54.112 95.7986 53.712 95.1586 53.264C94.5506 52.848 93.9106 52.432 93.2386 52.016C92.5986 51.632 92.0386 51.344 91.5586 51.152C93.1586 49.264 94.4226 47.216 95.3506 45.008C96.2786 42.768 96.9506 40.48 97.3666 38.144C97.8146 35.776 98.1026 33.456 98.2306 31.184C98.3906 28.88 98.4706 26.736 98.4706 24.752V11.264ZM83.3506 13.664L86.5186 9.44C87.5426 9.824 88.6146 10.304 89.7346 10.88C90.8866 11.424 91.9746 12.016 92.9986 12.656C94.0546 13.264 94.9026 13.856 95.5426 14.432L92.1826 19.088C91.5746 18.512 90.7746 17.888 89.7826 17.216C88.7906 16.544 87.7186 15.904 86.5666 15.296C85.4466 14.656 84.3746 14.112 83.3506 13.664ZM80.4706 26.672L83.5426 22.352C84.5666 22.704 85.6546 23.168 86.8066 23.744C87.9586 24.288 89.0626 24.864 90.1186 25.472C91.1746 26.048 92.0226 26.608 92.6626 27.152L89.4466 31.904C88.8066 31.328 87.9906 30.72 86.9986 30.08C86.0066 29.44 84.9346 28.832 83.7826 28.256C82.6306 27.648 81.5266 27.12 80.4706 26.672ZM81.7666 50C82.5666 48.752 83.4466 47.296 84.4066 45.632C85.3666 43.968 86.3426 42.192 87.3346 40.304C88.3586 38.384 89.3026 36.48 90.1666 34.592L94.5826 38.24C93.8146 39.936 92.9986 41.68 92.1346 43.472C91.2706 45.264 90.3746 47.024 89.4466 48.752C88.5506 50.448 87.6546 52.096 86.7586 53.696L81.7666 50ZM101.831 11.264H123.383V32.048H101.831V26.336H117.431V16.976H101.831V11.264ZM112.631 29.36C113.367 32.208 114.327 34.896 115.511 37.424C116.727 39.952 118.231 42.208 120.023 44.192C121.847 46.144 123.943 47.712 126.311 48.896C125.863 49.312 125.351 49.84 124.775 50.48C124.199 51.12 123.655 51.776 123.143 52.448C122.663 53.12 122.263 53.744 121.943 54.32C119.319 52.784 117.047 50.848 115.127 48.512C113.239 46.144 111.655 43.44 110.375 40.4C109.095 37.36 108.023 34.064 107.159 30.512L112.631 29.36ZM162.071 28.784C162.071 31.76 161.847 34.464 161.399 36.896C160.983 39.296 160.247 41.488 159.191 43.472C158.135 45.424 156.663 47.184 154.775 48.752C152.887 50.32 150.503 51.744 147.623 53.024L142.487 48.176C144.791 47.376 146.775 46.48 148.439 45.488C150.135 44.496 151.527 43.28 152.615 41.84C153.703 40.368 154.503 38.608 155.015 36.56C155.559 34.48 155.831 31.968 155.831 29.024V16.256C155.831 15.264 155.799 14.4 155.735 13.664C155.671 12.896 155.607 12.272 155.543 11.792H162.407C162.343 12.272 162.263 12.896 162.167 13.664C162.103 14.4 162.071 15.264 162.071 16.256V28.784ZM144.743 12.224C144.679 12.672 144.615 13.28 144.551 14.048C144.487 14.784 144.455 15.616 144.455 16.544V33.728C144.455 34.432 144.471 35.12 144.503 35.792C144.535 36.432 144.551 37.008 144.551 37.52C144.583 38 144.615 38.416 144.647 38.768H137.927C137.991 38.416 138.039 38 138.071 37.52C138.103 37.008 138.135 36.432 138.167 35.792C138.199 35.12 138.215 34.432 138.215 33.728V16.544C138.215 15.84 138.183 15.12 138.119 14.384C138.087 13.648 138.023 12.928 137.927 12.224H144.743ZM128.903 20.864C129.223 20.896 129.639 20.96 130.151 21.056C130.663 21.12 131.255 21.184 131.927 21.248C132.599 21.28 133.335 21.296 134.135 21.296H165.623C166.903 21.296 167.943 21.264 168.743 21.2C169.543 21.136 170.263 21.056 170.903 20.96V27.344C170.391 27.28 169.703 27.248 168.839 27.248C167.975 27.216 166.903 27.2 165.623 27.2H134.135C133.335 27.2 132.599 27.216 131.927 27.248C131.287 27.248 130.711 27.264 130.199 27.296C129.719 27.328 129.287 27.36 128.903 27.392V20.864ZM177.623 27.776C178.199 27.808 178.935 27.856 179.831 27.92C180.727 27.952 181.655 27.984 182.615 28.016C183.607 28.048 184.519 28.064 185.351 28.064C186.151 28.064 187.143 28.064 188.327 28.064C189.511 28.064 190.791 28.064 192.167 28.064C193.575 28.064 195.015 28.064 196.487 28.064C197.991 28.064 199.479 28.064 200.951 28.064C202.423 28.064 203.815 28.064 205.127 28.064C206.439 28.064 207.607 28.064 208.631 28.064C209.687 28.064 210.519 28.064 211.127 28.064C212.247 28.064 213.303 28.032 214.295 27.968C215.287 27.872 216.103 27.808 216.743 27.776V35.312C216.199 35.28 215.383 35.232 214.295 35.168C213.207 35.104 212.151 35.072 211.127 35.072C210.519 35.072 209.687 35.072 208.631 35.072C207.575 35.072 206.391 35.072 205.079 35.072C203.767 35.072 202.375 35.072 200.903 35.072C199.463 35.072 197.991 35.072 196.487 35.072C194.983 35.072 193.527 35.072 192.119 35.072C190.743 35.072 189.463 35.072 188.279 35.072C187.127 35.072 186.151 35.072 185.351 35.072C183.975 35.072 182.567 35.104 181.127 35.168C179.687 35.2 178.519 35.248 177.623 35.312V27.776ZM263.399 20.144C263.143 20.592 262.871 21.136 262.583 21.776C262.295 22.384 262.039 22.992 261.815 23.6C261.399 25.008 260.807 26.624 260.039 28.448C259.303 30.24 258.375 32.112 257.255 34.064C256.167 35.984 254.903 37.84 253.463 39.632C251.159 42.384 248.471 44.88 245.399 47.12C242.359 49.36 238.583 51.376 234.071 53.168L228.407 48.08C231.671 47.12 234.487 46.016 236.855 44.768C239.223 43.52 241.287 42.192 243.047 40.784C244.807 39.344 246.375 37.824 247.751 36.224C248.871 34.976 249.895 33.568 250.823 32C251.751 30.4 252.551 28.816 253.223 27.248C253.895 25.68 254.343 24.304 254.567 23.12H238.391L240.599 17.696C241.047 17.696 241.735 17.696 242.663 17.696C243.623 17.696 244.695 17.696 245.879 17.696C247.095 17.696 248.279 17.696 249.431 17.696C250.615 17.696 251.639 17.696 252.503 17.696C253.399 17.696 254.007 17.696 254.327 17.696C255.063 17.696 255.799 17.648 256.535 17.552C257.303 17.456 257.959 17.312 258.503 17.12L263.399 20.144ZM247.751 12.56C247.175 13.392 246.615 14.288 246.071 15.248C245.527 16.208 245.111 16.944 244.823 17.456C243.735 19.376 242.391 21.376 240.791 23.456C239.223 25.504 237.431 27.504 235.415 29.456C233.399 31.376 231.255 33.136 228.983 34.736L223.559 30.752C225.671 29.44 227.527 28.096 229.127 26.72C230.759 25.344 232.167 23.984 233.351 22.64C234.535 21.264 235.543 19.952 236.375 18.704C237.239 17.424 237.975 16.288 238.583 15.296C238.967 14.688 239.367 13.904 239.783 12.944C240.199 11.952 240.519 11.056 240.743 10.256L247.751 12.56ZM289.977 48.944C290.073 48.464 290.153 47.92 290.217 47.312C290.313 46.672 290.361 46.032 290.361 45.392C290.361 45.04 290.361 44.336 290.361 43.28C290.361 42.224 290.361 40.944 290.361 39.44C290.361 37.936 290.361 36.32 290.361 34.592C290.361 32.832 290.361 31.056 290.361 29.264C290.361 27.472 290.361 25.792 290.361 24.224C290.361 22.624 290.361 21.232 290.361 20.048C290.361 18.832 290.361 17.952 290.361 17.408C290.361 16.32 290.297 15.376 290.169 14.576C290.073 13.776 290.009 13.344 289.977 13.28H297.129C297.097 13.344 297.033 13.792 296.937 14.624C296.841 15.424 296.793 16.368 296.793 17.456C296.793 18 296.793 18.816 296.793 19.904C296.793 20.96 296.793 22.192 296.793 23.6C296.793 24.976 296.793 26.448 296.793 28.016C296.793 29.584 296.793 31.136 296.793 32.672C296.793 34.176 296.793 35.616 296.793 36.992C296.793 38.336 296.793 39.488 296.793 40.448C296.793 41.408 296.793 42.112 296.793 42.56C298.105 41.984 299.465 41.2 300.873 40.208C302.281 39.216 303.657 38.064 305.001 36.752C306.377 35.408 307.593 33.968 308.649 32.432L312.345 37.712C311.033 39.44 309.433 41.136 307.545 42.8C305.689 44.464 303.769 45.984 301.785 47.36C299.801 48.736 297.897 49.888 296.073 50.816C295.561 51.104 295.145 51.36 294.825 51.584C294.505 51.84 294.233 52.064 294.009 52.256L289.977 48.944ZM267.753 48.224C269.865 46.752 271.593 44.976 272.937 42.896C274.281 40.816 275.273 38.768 275.913 36.752C276.265 35.696 276.521 34.4 276.681 32.864C276.873 31.296 277.017 29.632 277.113 27.872C277.209 26.08 277.257 24.32 277.257 22.592C277.289 20.832 277.305 19.216 277.305 17.744C277.305 16.784 277.257 15.968 277.161 15.296C277.097 14.592 277.001 13.936 276.873 13.328H283.929C283.897 13.392 283.849 13.664 283.785 14.144C283.753 14.592 283.705 15.136 283.641 15.776C283.609 16.384 283.593 17.024 283.593 17.696C283.593 19.104 283.577 20.752 283.545 22.64C283.513 24.496 283.449 26.4 283.353 28.352C283.257 30.304 283.113 32.16 282.921 33.92C282.729 35.648 282.473 37.12 282.153 38.336C281.417 41.056 280.313 43.584 278.841 45.92C277.401 48.224 275.657 50.288 273.609 52.112L267.753 48.224ZM322.713 34.16C323.257 32.816 323.769 31.408 324.249 29.936C324.761 28.432 325.209 26.896 325.593 25.328C326.009 23.76 326.361 22.192 326.649 20.624C326.937 19.024 327.145 17.456 327.273 15.92L334.281 17.36C334.153 17.84 334.009 18.384 333.849 18.992C333.689 19.6 333.545 20.192 333.417 20.768C333.289 21.344 333.193 21.808 333.129 22.16C332.969 23.024 332.745 24.048 332.457 25.232C332.169 26.416 331.833 27.664 331.449 28.976C331.097 30.288 330.713 31.616 330.297 32.96C329.881 34.272 329.465 35.488 329.049 36.608C328.473 38.176 327.785 39.792 326.985 41.456C326.217 43.088 325.401 44.672 324.537 46.208C323.673 47.744 322.825 49.12 321.993 50.336L315.273 47.504C316.777 45.52 318.185 43.328 319.497 40.928C320.841 38.528 321.913 36.272 322.713 34.16ZM346.425 33.152C345.977 31.904 345.449 30.56 344.841 29.12C344.265 27.68 343.657 26.24 343.017 24.8C342.377 23.328 341.753 21.952 341.145 20.672C340.537 19.392 339.977 18.288 339.465 17.36L345.849 15.296C346.329 16.224 346.889 17.344 347.529 18.656C348.169 19.968 348.809 21.36 349.449 22.832C350.121 24.304 350.761 25.76 351.369 27.2C351.977 28.608 352.505 29.888 352.953 31.04C353.369 32.128 353.833 33.392 354.345 34.832C354.857 36.24 355.369 37.728 355.881 39.296C356.393 40.832 356.873 42.336 357.321 43.808C357.801 45.28 358.201 46.608 358.521 47.792L351.417 50.096C351.001 48.208 350.521 46.288 349.977 44.336C349.433 42.384 348.857 40.464 348.249 38.576C347.673 36.688 347.065 34.88 346.425 33.152ZM396.345 9.536C396.761 10.144 397.193 10.832 397.641 11.6C398.121 12.368 398.569 13.136 398.985 13.904C399.401 14.64 399.753 15.296 400.041 15.872L396.009 17.552C395.689 16.912 395.321 16.224 394.905 15.488C394.521 14.752 394.105 14.016 393.657 13.28C393.241 12.512 392.825 11.808 392.409 11.168L396.345 9.536ZM403.065 8.336C403.481 8.912 403.929 9.584 404.409 10.352C404.889 11.12 405.353 11.888 405.801 12.656C406.249 13.424 406.617 14.096 406.905 14.672L402.921 16.4C402.377 15.408 401.753 14.304 401.049 13.088C400.377 11.872 399.721 10.816 399.081 9.92L403.065 8.336ZM401.337 18.608C401.113 19.056 400.905 19.6 400.713 20.24C400.553 20.848 400.409 21.408 400.281 21.92C399.993 23.104 399.641 24.432 399.225 25.904C398.841 27.344 398.345 28.848 397.737 30.416C397.161 31.984 396.473 33.536 395.673 35.072C394.905 36.608 394.025 38.048 393.033 39.392C391.593 41.312 389.913 43.104 387.993 44.768C386.105 46.432 383.961 47.936 381.561 49.28C379.193 50.624 376.585 51.76 373.737 52.688L368.505 46.928C371.705 46.16 374.457 45.216 376.761 44.096C379.097 42.976 381.113 41.696 382.809 40.256C384.505 38.816 386.009 37.28 387.321 35.648C388.377 34.304 389.289 32.848 390.057 31.28C390.825 29.712 391.449 28.144 391.929 26.576C392.409 24.976 392.745 23.488 392.937 22.112C392.489 22.112 391.705 22.112 390.585 22.112C389.465 22.112 388.169 22.112 386.697 22.112C385.225 22.112 383.673 22.112 382.041 22.112C380.409 22.112 378.841 22.112 377.337 22.112C375.833 22.112 374.473 22.112 373.257 22.112C372.073 22.112 371.193 22.112 370.617 22.112C369.497 22.112 368.425 22.128 367.401 22.16C366.377 22.192 365.545 22.24 364.905 22.304V15.536C365.385 15.6 365.961 15.664 366.633 15.728C367.337 15.792 368.041 15.84 368.745 15.872C369.481 15.904 370.105 15.92 370.617 15.92C371.129 15.92 371.865 15.92 372.825 15.92C373.785 15.92 374.873 15.92 376.089 15.92C377.337 15.92 378.633 15.92 379.977 15.92C381.353 15.92 382.713 15.92 384.057 15.92C385.433 15.92 386.713 15.92 387.897 15.92C389.081 15.92 390.105 15.92 390.969 15.92C391.833 15.92 392.457 15.92 392.841 15.92C393.321 15.92 393.897 15.904 394.569 15.872C395.273 15.84 395.945 15.728 396.585 15.536L401.337 18.608Z" fill="white"/>
</svg>
