<!DOCTYPE svg PUBLIC "-//W3C//DTD SVG 1.1//EN" "http://www.w3.org/Graphics/SVG/1.1/DTD/svg11.dtd">
<!-- Uploaded to: SVG Repo, www.svgrepo.com, Transformed by: SVG Repo Mixer Tools -->
<svg width="256px" height="256px" viewBox="-2.4 -2.4 28.80 28.80" xmlns="http://www.w3.org/2000/svg" fill="" transform="matrix(1, 0, 0, 1, 0, 0)" stroke="" stroke-width="0.00024000000000000003">
<g id="SVGRepo_bgCarrier" stroke-width="0">
<rect x="-2.4" y="-2.4" width="28.80" height="28.80" rx="14.4" fill="#c3bd6b" strokewidth="0"/>
</g>
<g id="SVGRepo_tracerCarrier" stroke-linecap="round" stroke-linejoin="round" stroke="#bdbbf4" stroke-width="0.144"/>
<g id="SVGRepo_iconCarrier">
<path d="M10.53,11.68l-2.6-1.57A1.34,1.34,0,0,0,8,9.76a1.37,1.37,0,1,0-1.36,1.36,1.32,1.32,0,0,0,.92-.37l2.61,1.57a.33.33,0,0,0,.19.06.38.38,0,0,0,.19-.7ZM6.62,10.37a.61.61,0,1,1,0-1.22.61.61,0,0,1,0,1.22Z" style="fill:#c3bd6b"/>
<path d="M9.2,18.83A6.83,6.83,0,1,1,16,12,6.85,6.85,0,0,1,9.2,18.83Zm0-12.15A5.33,5.33,0,1,0,14.52,12,5.33,5.33,0,0,0,9.2,6.68Z" style="fill:#ede584"/>
<path d="M19.77,15.54a1.82,1.82,0,0,0-1.1.37l-5.76-3.3A3.09,3.09,0,0,0,13,12a3.09,3.09,0,0,0-.08-.61l5.76-3.3a1.82,1.82,0,0,0,1.1.37A1.86,1.86,0,1,0,17.91,6.6a1.37,1.37,0,0,0,0,.19l-5.82,3.33a2.47,2.47,0,1,0,0,3.76l5.82,3.33a1.37,1.37,0,0,0,0,.19,1.86,1.86,0,1,0,1.86-1.86Z" style="fill:#9b9654"/>
</g>
</svg>