<svg width="30" height="24" viewBox="0 0 30 24" fill="none" xmlns="http://www.w3.org/2000/svg">
<path fill-rule="evenodd" clip-rule="evenodd" d="M17.3333 5.3335C16.9797 5.3335 16.6406 5.47397 16.3905 5.72402C16.1405 5.97407 16 6.31321 16 6.66683V17.3335C16 17.6871 16.1405 18.0263 16.3905 18.2763C16.6406 18.5264 16.9797 18.6668 17.3333 18.6668H22.6667C23.0203 18.6668 23.3594 18.5264 23.6095 18.2763C23.8595 18.0263 24 17.6871 24 17.3335V6.66683C24 6.31321 23.8595 5.97407 23.6095 5.72402C23.3594 5.47397 23.0203 5.3335 22.6667 5.3335H17.3333ZM21.3333 8.00016H18.6667V16.0002H21.3333V8.00016Z" fill="black"/>
<path d="M6.66671 5.3335C6.31309 5.3335 5.97395 5.47397 5.7239 5.72402C5.47385 5.97407 5.33337 6.31321 5.33337 6.66683C5.33337 7.02045 5.47385 7.35959 5.7239 7.60964C5.97395 7.85969 6.31309 8.00016 6.66671 8.00016H12C12.3537 8.00016 12.6928 7.85969 12.9428 7.60964C13.1929 7.35959 13.3334 7.02045 13.3334 6.66683C13.3334 6.31321 13.1929 5.97407 12.9428 5.72402C12.6928 5.47397 12.3537 5.3335 12 5.3335H6.66671ZM6.66671 10.6668C6.31309 10.6668 5.97395 10.8073 5.7239 11.0574C5.47385 11.3074 5.33337 11.6465 5.33337 12.0002C5.33337 12.3538 5.47385 12.6929 5.7239 12.943C5.97395 13.193 6.31309 13.3335 6.66671 13.3335H12C12.3537 13.3335 12.6928 13.193 12.9428 12.943C13.1929 12.6929 13.3334 12.3538 13.3334 12.0002C13.3334 11.6465 13.1929 11.3074 12.9428 11.0574C12.6928 10.8073 12.3537 10.6668 12 10.6668H6.66671ZM5.33337 17.3335C5.33337 16.9799 5.47385 16.6407 5.7239 16.3907C5.97395 16.1406 6.31309 16.0002 6.66671 16.0002H12C12.3537 16.0002 12.6928 16.1406 12.9428 16.3907C13.1929 16.6407 13.3334 16.9799 13.3334 17.3335C13.3334 17.6871 13.1929 18.0263 12.9428 18.2763C12.6928 18.5264 12.3537 18.6668 12 18.6668H6.66671C6.31309 18.6668 5.97395 18.5264 5.7239 18.2763C5.47385 18.0263 5.33337 17.6871 5.33337 17.3335Z" fill="black"/>
<path fill-rule="evenodd" clip-rule="evenodd" d="M4 0C2.93913 0 1.92172 0.421428 1.17157 1.17157C0.421427 1.92172 0 2.93913 0 4V20C0 21.0609 0.421427 22.0783 1.17157 22.8284C1.92172 23.5786 2.93913 24 4 24H25.3333C26.3942 24 27.4116 23.5786 28.1618 22.8284C28.9119 22.0783 29.3333 21.0609 29.3333 20V4C29.3333 2.93913 28.9119 1.92172 28.1618 1.17157C27.4116 0.421428 26.3942 0 25.3333 0H4ZM25.3333 2.66667H4C3.64638 2.66667 3.30724 2.80714 3.05719 3.05719C2.80714 3.30724 2.66667 3.64638 2.66667 4V20C2.66667 20.3536 2.80714 20.6928 3.05719 20.9428C3.30724 21.1929 3.64638 21.3333 4 21.3333H25.3333C25.687 21.3333 26.0261 21.1929 26.2761 20.9428C26.5262 20.6928 26.6667 20.3536 26.6667 20V4C26.6667 3.64638 26.5262 3.30724 26.2761 3.05719C26.0261 2.80714 25.687 2.66667 25.3333 2.66667Z" fill="black"/>
</svg>
